<svg xmlns="http://www.w3.org/2000/svg" width="140" height="40" viewBox="0 0 140 40" fill="none">
  <path d="M28.8245 36.7064C28.8245 38.8401 27.4712 40 25.7488 40C24.0088 40 22.6643 38.8313 22.6643 36.7064C22.6643 34.5726 24.0088 33.4127 25.7488 33.4127C27.4712 33.4127 28.8245 34.5726 28.8245 36.7064ZM27.1021 36.7064C27.1021 35.5288 26.6188 34.8825 25.7488 34.8825C24.87 34.8825 24.3867 35.5288 24.3867 36.7064C24.3867 37.8839 24.87 38.5303 25.7488 38.5303C26.6188 38.5303 27.1021 37.8839 27.1021 36.7064Z" fill="#B8B8B8"/>
  <path d="M37.8161 33.5013V39.9115H36.4189L34.055 36.4496H34.011V39.9115H32.3413V33.5013H33.765L36.0937 36.9454H36.1464V33.5013H37.8161Z" fill="#B8B8B8"/>
  <path d="M41.3769 39.9115V33.5013H43.0466V38.548H45.6389V39.9115H41.3769Z" fill="#B8B8B8"/>
  <path d="M50.7288 33.5013V39.9115H49.0591V33.5013H50.7288Z" fill="#B8B8B8"/>
  <path d="M59.7644 33.5013V39.9115H58.3671L56.0032 36.4496H55.9593V39.9115H54.2896V33.5013H55.7132L58.042 36.9454H58.0947V33.5013H59.7644Z" fill="#B8B8B8"/>
  <path d="M63.3251 39.9115V33.5013H67.8684V34.8648H64.9948V36.0246H67.6311V37.3881H64.9948V38.548H67.8596V39.9115H63.3251Z" fill="#B8B8B8"/>
  <path d="M78.716 33.5013H80.3681V37.9016C80.3593 39.1589 79.3838 40 77.9866 40C76.7739 40 75.7809 39.3891 75.7897 37.9371H77.4593C77.4769 38.424 77.7054 38.6808 78.092 38.6808C78.4963 38.6808 78.7072 38.4152 78.716 37.9016V33.5013Z" fill="#B8B8B8"/>
  <path d="M87.7076 33.5013H89.3773V37.6183C89.3773 39.0703 88.2788 39.9911 86.6443 39.9911C85.0098 39.9911 83.9201 39.0703 83.9201 37.6183V33.5013H85.5897V37.4678C85.5897 38.0876 86.0291 38.5303 86.6443 38.5303C87.2682 38.5303 87.7076 38.0876 87.7076 37.4678V33.5013Z" fill="#B8B8B8"/>
  <path d="M95.3547 39.9115H92.938V33.5013H95.3371C97.2968 33.5013 98.5183 34.7054 98.5183 36.7064C98.5183 38.7073 97.2968 39.9115 95.3547 39.9115ZM94.6077 38.4771H95.2932C96.2774 38.4771 96.831 38.061 96.831 36.7064C96.831 35.3517 96.2774 34.9356 95.2492 34.9356H94.6077V38.4771Z" fill="#B8B8B8"/>
  <path d="M106.174 35.6085C106.06 35.1481 105.682 34.8825 105.12 34.8825C104.232 34.8825 103.714 35.5554 103.714 36.6975C103.714 37.8485 104.197 38.5303 105.111 38.5303C105.906 38.5303 106.31 38.154 106.324 37.5563H105.146V36.3522H107.94V37.2287C107.94 38.973 106.754 40 105.093 40C103.248 40 101.991 38.7428 101.991 36.7152C101.991 34.608 103.371 33.4127 105.084 33.4127C106.578 33.4127 107.73 34.3247 107.87 35.6085H106.174Z" fill="#B8B8B8"/>
  <path d="M111.475 39.9115V33.5013H116.018V34.8648H113.145V36.0246H115.781V37.3881H113.145V38.548H116.009V39.9115H111.475Z" fill="#B8B8B8"/>
  <path d="M15.2257 6.56402H9.35859V7.28933H11.6982V8.01464H14.7938V8.55862H11.3023V8.73994H11.7342V9.46525H10.8344V9.64657H10.7624V9.8279H9.86251V10.5532H11.5543V10.7345H11.6262V10.9159H11.2303V11.4598H10.9783V11.6412H12.1662V12.3665H9.2866V13.0918H10.3304V13.6358H10.9064V14.3611H10.9783V15.0864H10.6904V15.993H11.0143V16.3557H10.7984V16.8996H10.7624V17.081H10.4744V17.8063H10.7984V18.1689H10.7624V20.3448H10.7984V21.0702H11.4103V21.7955H10.9064V22.1581H10.7624V22.5208H11.1943V23.2461H10.5824V23.4274H11.4823V23.7901H11.8062V23.9714H11.5183V24.5154H11.3743V24.7692C11.3743 24.8176 11.3623 24.8659 11.3383 24.9143C11.3383 24.9626 11.3263 25.011 11.3023 25.0593H10.4024C10.3784 25.1802 10.3064 25.3011 10.1865 25.422H11.1943C11.0983 25.5187 11.0263 25.5791 10.9783 25.6033H8.92665C8.80667 25.7 8.63869 25.7484 8.42273 25.7484H1.07984C0.863869 25.7484 0.695895 25.7 0.575913 25.6033H2.6276C2.53162 25.5791 2.45963 25.5187 2.41164 25.422H1.40379C1.28381 25.3011 1.21182 25.1802 1.18782 25.0593H2.12368C2.09968 24.9868 2.08768 24.8901 2.08768 24.7692V24.5154H2.23166V23.9714H2.51962V23.7901H2.19567V23.4274H1.2958V23.2461H1.90771V22.5208H1.47578V22.1581H1.61976V21.7955H2.12368V21.0702H1.51177V20.3448H1.47578V18.1689H1.51177V17.8063H1.18782V17.081H1.47578V16.8996H1.51177V16.3557H1.72774V15.993H1.40379V15.0864H1.69174V14.3611H1.61976V13.6358H1.04384V13.0918H0V12.3665H2.87956V11.6412H1.69174V11.4598H1.94371V10.9159H2.33965V10.7345H2.26766V10.5532H0.575913V9.8279H1.47578V9.64657H1.54777V9.46525H2.44763V8.73994H2.0157V8.55862H5.50717V8.01464H2.41164V7.28933H0.0719891V6.56402H5.9391V6.3827H2.26766V5.83872H2.23166V5.29474H1.58376V5.11341H3.77943V4.75076H2.12368V4.02545H2.26766V3.48147H1.25981V2.75617H1.43978V2.39351H1.3318V2.03086H1.61976V1.84953H1.2958V1.34182C1.2958 1.22093 1.3198 1.08796 1.36779 0.942899H1.54777C1.71574 0.556068 2.0157 0.362653 2.44763 0.362653H9.79052C10.2225 0.362653 10.5224 0.556068 10.6904 0.942899H10.5104C10.5584 1.08796 10.5824 1.22093 10.5824 1.34182V1.84953H10.9064V2.03086H10.6184V2.39351H10.7264V2.75617H10.5464V3.48147H11.5543V4.02545H11.4103V4.75076H13.066V5.11341H10.8704V5.29474H11.5183V5.83872H11.5543V6.3827H15.2257V6.56402Z" fill="url(#paint0_linear_20_450)"/>
  <path d="M40.7877 23.7901H40.9677V24.1527H40.0319V24.878H37.6562C37.6562 24.9747 37.6322 25.0714 37.5842 25.1681C37.5362 25.2648 37.4882 25.3495 37.4403 25.422H36.2164C36.1204 25.5187 36.0485 25.5791 36.0005 25.6033H37.4403C37.3203 25.7 37.1523 25.7484 36.9363 25.7484H31.2492C31.1052 25.7484 30.9732 25.7363 30.8532 25.7121C30.7333 25.6638 30.6253 25.6275 30.5293 25.6033H29.0535C28.9575 25.555 28.8615 25.4945 28.7656 25.422H29.9894C29.8694 25.3253 29.7734 25.2286 29.7014 25.1319C29.6294 25.0352 29.5694 24.9626 29.5214 24.9143V24.878H31.8611L31.3932 24.1527H32.329L32.0771 23.7901H31.8971L31.5371 23.2461H27.3978L26.8938 22.5208H27.4338L26.9658 21.7955H25.706L25.562 21.6141H27.2178L26.8578 21.0702H27.6137L27.2538 20.5262H25.778L25.3101 19.8009H27.5777L27.4698 19.6195H26.2819L26.066 19.2569H24.9501L24.4822 18.5316H23.8703L23.7623 18.3503H25.4181L25.0581 17.8063H23.1864V18.3503H21.3867V18.5316H23.8343V19.2569H24.1943V19.6195H24.2302V19.8009H23.1864V20.5262H21.4947V21.0702H23.4744V21.6141H23.1144V21.7955H22.6825V22.5208H23.4744V23.2461H23.7983V23.7901H22.3225V24.1527H23.5823V24.878H21.9986C21.9986 24.9747 21.9746 25.0714 21.9266 25.1681C21.8786 25.2648 21.8306 25.3495 21.7826 25.422H22.9344C22.8385 25.5187 22.7665 25.5791 22.7185 25.6033H21.6026C21.4827 25.7 21.3147 25.7484 21.0987 25.7484H14.5837C14.3437 25.7484 14.1638 25.7 14.0438 25.6033H15.1956C15.1476 25.5791 15.0756 25.5187 14.9796 25.422H13.7918C13.7438 25.3495 13.6958 25.2648 13.6478 25.1681C13.5999 25.0714 13.5759 24.9747 13.5759 24.878H15.1236V24.1527H13.8638V23.7901H15.3396V23.2461H15.0156V22.5208H14.2238V21.7955H14.6557V21.6141H15.0156V21.0702H13.0359V20.5262H14.7277V19.8009H15.7715V19.6195H15.7355V19.2569H15.3756V18.5316H12.928V18.3503H14.7277V17.8063H16.4554V17.6249H14.5477V17.4436H15.2676V16.7183H14.6917V15.993H14.7277V15.8117H14.4397V15.6304H14.4757V15.0864H13.1079V14.905H14.0438V14.5424H11.9201V13.8171H15.4836V13.4544H13.2159V12.7291H14.5117V12.5478H14.7277V12.0038H15.3756V11.6412H15.6995V11.0972H14.7637V10.9159H14.4037V10.5532H14.0438V9.8279H14.7277V9.28392H15.6995V8.92127H17.9672V8.73994H15.1596V8.55862H14.2238V8.01464H13.8278V7.47066H14.4757V6.74535H15.4116V6.20137H16.3114V5.83872H14.5117V5.65739H14.7277V4.93209H15.5556V4.75076H13.8638V4.3881H14.9077V3.6628H13.5399V3.11882H14.4397V2.75617H11.2362V2.21218H10.5523V1.84953H12.9639V1.34182C12.9639 1.24511 12.9759 1.17258 12.9999 1.12423H15.4116C15.4116 1.02752 15.4596 0.906634 15.5556 0.761573H14.9077C15.0996 0.495626 15.3636 0.362653 15.6995 0.362653H21.3867C21.6506 0.362653 21.8786 0.398918 22.0706 0.47145C22.2625 0.543981 22.4185 0.640688 22.5385 0.761573H23.1864C23.2824 0.858279 23.3784 0.979163 23.4744 1.12423H21.0627C21.0627 1.1484 21.0627 1.16049 21.0627 1.16049C21.0867 1.16049 21.0987 1.17258 21.0987 1.19676L21.4947 1.84953H19.083L19.299 2.21218H19.9829L20.3068 2.75617H23.5104L23.7263 3.11882H22.8625L23.1864 3.6628H24.5182L24.9861 4.3881H23.9423L24.1583 4.75076H25.85L25.958 4.93209H25.1301L25.562 5.65739H25.3461L25.4541 5.83872H27.2538L27.4698 6.20137H26.5699L26.9298 6.74535H25.994L26.4259 7.47066H25.742L26.066 8.01464H26.4619L26.8219 8.55862H27.7577L27.8657 8.73994H28.4056V8.55862H29.4855V8.01464H28.4416V7.47066H28.6936V6.74535H29.4135V6.20137H30.2773V5.83872H28.5496V4.93209H30.6733V4.75076H30.6373V4.3881H28.3696V3.6628H29.1615V3.11882H30.2053V2.75617H28.0097V2.21218H30.8172V1.84953H30.6013V1.34182C30.6013 1.24511 30.6133 1.17258 30.6373 1.12423H29.4495C29.4735 1.02752 29.5334 0.906634 29.6294 0.761573H28.4056C28.5976 0.495626 28.8615 0.362653 29.1975 0.362653H35.7125C36.0485 0.362653 36.3124 0.495626 36.5044 0.761573H37.7282C37.7762 0.858279 37.8242 0.979163 37.8722 1.12423H39.06V1.84953H39.276V2.21218H36.4684V2.75617H38.6641V3.11882H37.6202V3.6628H36.8283V4.3881H39.096V4.75076H39.132V4.93209H37.0083V5.83872H38.7361V6.20137H37.8722V6.74535H37.1523V7.47066H36.9003V8.01464H37.9442V8.55862H36.8643V8.73994H39.384V8.92127H38.0522V9.28392H37.6922V9.8279H36.5044V10.5532H35.2806V10.9159H37.1523V11.0972H38.3761V11.6412H38.0522V12.0038H37.4043V12.5478H37.1883V12.7291H35.8925V13.4544H38.1601V13.8171H34.5967V14.5424H36.7204V14.905H35.7845V15.0864H37.1523V15.6304H37.1163V15.8117H38.2681V15.993H37.4762V16.7183H37.5482V17.4436H38.5561V17.6249H36.8283V17.8063H37.8722V18.3503H36.2164V18.5316H36.7923V19.2569H37.9082V19.6195H39.096V19.8009H36.7923V20.5262H38.2681V21.0702H37.5122V21.6141H35.8925V21.7955H37.1523V22.5208H36.6124V23.2461H40.7877V23.7901ZM30.9252 8.73994H30.6733L30.7813 8.92127H30.9252V8.73994ZM28.5136 8.92127L28.7296 9.28392H27.7577L28.0817 9.8279H29.2335V9.28392H29.5934V8.92127H28.5136ZM28.0457 9.8279H27.3978L27.8297 10.5532H28.0457V9.8279ZM25.634 17.6249L25.526 17.4436H24.5182L24.0503 16.7183H23.9423L23.4744 15.993H24.2662L24.1223 15.8117H23.1864V15.993H23.1504V16.7183H23.7263V17.4436H23.0064V17.6249H25.634Z" fill="url(#paint1_linear_20_450)"/>
  <path d="M63.5807 22.1581H62.105L61.781 22.5208H67.2882C67.2642 22.5449 67.2402 22.5691 67.2162 22.5933C67.1922 22.6175 67.1562 22.6537 67.1082 22.7021H58.6135C58.4935 22.823 58.3615 22.9439 58.2175 23.0647C58.0976 23.1856 57.9656 23.3065 57.8216 23.4274H60.4492L59.9813 23.7901H64.8765L64.5886 23.9714H62.4649C62.4409 23.9956 62.3929 24.0197 62.3209 24.0439C62.2729 24.0681 62.2249 24.1044 62.1769 24.1527H59.7653L58.7575 24.6967H60.1612C59.8493 24.8417 59.5373 24.9747 59.2254 25.0956C58.9134 25.1923 58.5895 25.3011 58.2535 25.422H56.9577C56.1419 25.6638 55.254 25.8451 54.2941 25.966H54.4741C54.0902 26.0143 53.6942 26.0506 53.2863 26.0748C52.8784 26.0989 52.4704 26.111 52.0625 26.111C51.6065 26.111 51.1506 26.0989 50.6947 26.0748C50.2627 26.0506 49.8428 26.0143 49.4349 25.966H49.2909C48.2591 25.8451 47.3352 25.6638 46.5193 25.422H47.8151C47.4552 25.3011 47.1192 25.1923 46.8073 25.0956C46.4953 24.9747 46.1834 24.8417 45.8714 24.6967H44.4676C44.2996 24.6 44.1317 24.5154 43.9637 24.4428C43.7957 24.3461 43.6278 24.2494 43.4598 24.1527H45.9074L45.6194 23.9714H47.7431C47.7191 23.923 47.6831 23.8868 47.6351 23.8626C47.5872 23.8384 47.5392 23.8142 47.4912 23.7901H42.5959C42.4999 23.7417 42.4159 23.6813 42.3439 23.6087C42.272 23.5362 42.2 23.4758 42.128 23.4274H39.4644C39.3444 23.3065 39.2244 23.1856 39.1044 23.0647C38.9605 22.9439 38.8285 22.823 38.7085 22.7021H47.2032C47.1792 22.6537 47.1552 22.6175 47.1312 22.5933C47.1072 22.5691 47.0832 22.5449 47.0592 22.5208H41.5521C41.4561 22.4241 41.3601 22.3032 41.2641 22.1581H42.7399C42.7159 22.1098 42.6919 22.0735 42.6679 22.0493C42.6439 22.0251 42.6199 22.001 42.5959 21.9768H47.0952L46.7713 21.4328H44.5396L44.4316 21.2515H39.3564C39.3324 21.1548 39.2964 21.0702 39.2484 20.9976C39.2004 20.9009 39.1524 20.8042 39.1044 20.7075H41.5161L41.3001 20.1635H40.4362L40.3642 19.9822H40.7602C40.7362 19.8855 40.7122 19.8009 40.6882 19.7283C40.6642 19.6316 40.6402 19.5349 40.6162 19.4382H40.3283C40.3283 19.3415 40.3162 19.2569 40.2923 19.1844C40.2923 19.0876 40.2803 18.9909 40.2563 18.8942H39.9683C39.9683 18.7975 39.9563 18.7129 39.9323 18.6404C39.9323 18.5678 39.9323 18.4832 39.9323 18.3865V18.3503H39.8963C39.8963 18.3019 39.8963 18.2656 39.8963 18.2415C39.9203 18.2173 39.9323 18.1931 39.9323 18.1689H40.7602C40.8802 17.7821 41.1321 17.5887 41.5161 17.5887H48.355C48.739 17.5887 49.0269 17.637 49.2189 17.7337C49.4109 17.8305 49.6268 17.9755 49.8668 18.1689H49.0389L49.0749 18.2052C49.1229 18.2294 49.1589 18.2535 49.1829 18.2777C49.2309 18.3019 49.2669 18.3261 49.2909 18.3503H49.3269C49.6388 18.592 50.0228 18.7733 50.4787 18.8942H50.8027C51.1146 18.9909 51.5346 19.0393 52.0625 19.0393C52.3744 19.0393 52.6624 19.0272 52.9263 19.003C53.1903 18.9789 53.4183 18.9426 53.6102 18.8942H53.5023C54.0542 18.7733 54.4021 18.592 54.5461 18.3503H54.4741C54.5221 18.2535 54.5461 18.1931 54.5461 18.1689H54.906L54.942 18.0239C54.942 17.8063 54.8581 17.6129 54.6901 17.4436H54.4021C54.1862 17.226 53.8022 17.0447 53.2503 16.8996H53.1423C52.9263 16.8271 52.6744 16.7667 52.3864 16.7183C52.0985 16.6458 51.7625 16.5853 51.3786 16.537H51.1626L49.6868 16.3194C49.5189 16.2952 49.3509 16.271 49.1829 16.2469C49.0389 16.2227 48.883 16.1985 48.715 16.1743C47.7311 16.0051 46.7833 15.7633 45.8714 15.449H45.2235C44.8876 15.3281 44.5756 15.2073 44.2876 15.0864H43.7837C43.6637 15.038 43.5438 14.9897 43.4238 14.9413C43.3038 14.8688 43.1838 14.7963 43.0638 14.7237H39.9323C39.7643 14.627 39.6084 14.5424 39.4644 14.4699C39.3204 14.3732 39.1764 14.2764 39.0324 14.1797H45.7274C45.6074 14.083 45.4875 13.9984 45.3675 13.9259C45.2715 13.8292 45.1635 13.7325 45.0435 13.6358H37.8806C37.8086 13.5874 37.7486 13.527 37.7006 13.4544C37.6287 13.3819 37.5687 13.3215 37.5207 13.2731H39.3924C39.1764 13.0313 38.9725 12.7896 38.7805 12.5478H39.3204L39.1044 12.1851H35.649C35.625 12.1368 35.601 12.1005 35.577 12.0764C35.553 12.0522 35.541 12.028 35.541 12.0038H43.7477C43.6997 11.9071 43.6517 11.8225 43.6038 11.75C43.5558 11.6533 43.5078 11.5566 43.4598 11.4598H37.1607L36.9448 10.9159H42.02L41.948 10.7345H40.4362L40.3642 10.5532H41.0841C41.0841 10.5049 41.0721 10.4686 41.0481 10.4444C41.0481 10.4202 41.0481 10.3961 41.0481 10.3719H40.9042L40.7962 10.0092H40.5802L40.5442 9.64657H40.4722V9.46525H39.3204C39.2964 9.41689 39.2844 9.35645 39.2844 9.28392C39.2844 9.21139 39.2844 9.15095 39.2844 9.1026H38.2406L38.2046 8.73994H42.3079C42.284 8.69159 42.272 8.63115 42.272 8.55862C42.272 8.48609 42.272 8.42564 42.272 8.37729H42.8479V8.34102C42.8479 8.22014 42.8479 8.09926 42.8479 7.97837C42.8479 7.85749 42.8599 7.74869 42.8839 7.65198H41.3361C41.3601 7.55528 41.3721 7.47066 41.3721 7.39813C41.3721 7.30142 41.3841 7.20471 41.4081 7.108H43.9277C43.9277 7.05965 43.9277 7.02338 43.9277 6.99921C43.9517 6.97503 43.9637 6.95085 43.9637 6.92668H41.4081C41.4561 6.78161 41.4801 6.66073 41.4801 6.56402H41.0841L41.1921 6.20137H40.5802C40.6522 5.93542 40.7362 5.69366 40.8322 5.47606H41.1201L41.2641 5.11341H41.66L41.984 4.56943H41.6241C41.696 4.47272 41.756 4.3881 41.804 4.31557C41.876 4.21887 41.936 4.12216 41.984 4.02545H41.696L42.128 3.48147H42.8839C42.9079 3.43312 42.9319 3.39685 42.9559 3.37267C42.9798 3.3485 43.0038 3.32432 43.0278 3.30014H42.02C42.116 3.20344 42.212 3.11882 42.3079 3.04629C42.4039 2.94958 42.4999 2.85287 42.5959 2.75617H43.1718C43.3158 2.63528 43.4598 2.51439 43.6038 2.39351C43.7477 2.24845 43.9037 2.12757 44.0717 2.03086H44.7196C44.8636 1.93415 45.0075 1.84953 45.1515 1.777C45.2955 1.68029 45.4515 1.58359 45.6194 1.48688H45.5115C45.5595 1.43853 45.6194 1.40226 45.6914 1.37808C45.7634 1.35391 45.8234 1.32973 45.8714 1.30555H45.3675C45.4155 1.2572 45.4755 1.22093 45.5475 1.19676C45.6194 1.17258 45.6914 1.1484 45.7634 1.12423H45.4035C45.7394 0.979163 46.0874 0.84619 46.4473 0.725306C46.8313 0.604421 47.2152 0.495625 47.5992 0.398918H48.1391C48.691 0.278033 49.2669 0.181326 49.8668 0.108797C50.4907 0.0362656 51.1386 0 51.8105 0C53.0823 0 54.2821 0.132973 55.41 0.398918H54.906C55.6739 0.568157 56.4178 0.809926 57.1377 1.12423H57.4617C57.5336 1.1484 57.6056 1.17258 57.6776 1.19676C57.7496 1.22093 57.8216 1.2572 57.8936 1.30555H58.3975C58.4455 1.32973 58.5055 1.35391 58.5775 1.37808C58.6495 1.40226 58.7095 1.43853 58.7575 1.48688H58.8654C59.0334 1.58359 59.1894 1.68029 59.3334 1.777C59.5014 1.84953 59.6573 1.93415 59.8013 2.03086H59.1894C59.3814 2.12757 59.5493 2.24845 59.6933 2.39351C59.8613 2.51439 60.0173 2.63528 60.1612 2.75617H59.6213L60.1972 3.30014H61.2051L61.3851 3.48147H60.6292C60.7252 3.57818 60.8092 3.67489 60.8811 3.77159C60.9771 3.84412 61.0611 3.92874 61.1331 4.02545H61.4211L61.853 4.56943H62.1769L62.5009 5.11341H62.105C62.1769 5.2343 62.2369 5.35518 62.2849 5.47606H61.997C62.069 5.59695 62.129 5.71783 62.1769 5.83872C62.2249 5.9596 62.2729 6.08049 62.3209 6.20137H62.9328C62.9808 6.34643 63.0048 6.46732 63.0048 6.56402H63.4368C63.4608 6.61238 63.4728 6.67282 63.4728 6.74535C63.4728 6.81788 63.4848 6.87832 63.5087 6.92668H66.0644V7.108H63.7607C63.7847 7.20471 63.7967 7.33768 63.7967 7.50692V7.65198H62.4649C62.3689 8.08717 62.129 8.30476 61.745 8.30476H54.5461C54.2102 8.30476 53.9342 8.2564 53.7182 8.1597C53.5263 8.06299 53.3223 7.91793 53.1063 7.72451L52.9983 7.65198H54.3301C54.2102 7.55528 54.0422 7.45857 53.8262 7.36186C53.6102 7.24098 53.3343 7.15636 52.9983 7.108H51.7025C51.1986 7.18053 50.8507 7.36186 50.6587 7.65198H52.2065C52.1345 7.79704 52.0985 7.94211 52.0985 8.08717C52.0985 8.20805 52.1105 8.30476 52.1345 8.37729H51.5945C51.6185 8.49817 51.7145 8.61906 51.8825 8.73994H47.8151C47.9591 8.86083 48.2111 8.98171 48.571 9.1026H49.6148C49.8068 9.17513 50.0348 9.24766 50.2987 9.32019C50.5867 9.36854 50.8867 9.41689 51.1986 9.46525H52.3504C52.5424 9.48943 52.7464 9.5136 52.9623 9.53778C53.1783 9.56196 53.4063 9.59822 53.6462 9.64657H53.6822C54.0902 9.69493 54.4861 9.75537 54.8701 9.8279C55.254 9.87626 55.6139 9.9367 55.9499 10.0092H56.1659C56.4538 10.0576 56.7178 10.118 56.9577 10.1906C57.2217 10.2389 57.4737 10.2994 57.7136 10.3719H57.8576C57.9776 10.3961 58.0856 10.4202 58.1815 10.4444C58.2775 10.4686 58.3735 10.5049 58.4695 10.5532H57.7856C57.8816 10.5774 57.9656 10.6016 58.0376 10.6257C58.1336 10.6499 58.2295 10.6862 58.3255 10.7345H59.8373C59.9093 10.7587 59.9813 10.7829 60.0533 10.8071C60.1493 10.8312 60.2332 10.8675 60.3052 10.9159H55.23C55.7099 11.1093 56.0939 11.2906 56.3818 11.4598H62.6809C62.8249 11.5566 62.9688 11.6533 63.1128 11.75C63.2568 11.8225 63.3888 11.9071 63.5087 12.0038H55.302C55.35 12.028 55.398 12.0522 55.446 12.0764C55.494 12.1005 55.5299 12.1368 55.5539 12.1851H59.0094C59.0814 12.2335 59.1534 12.2939 59.2254 12.3665C59.2974 12.439 59.3574 12.4994 59.4054 12.5478H58.8654C59.1054 12.7654 59.3094 13.0072 59.4774 13.2731H57.6056C57.6536 13.3215 57.7016 13.3819 57.7496 13.4544C57.7976 13.527 57.8336 13.5874 57.8576 13.6358H64.9845L65.3085 14.1797H58.6135C58.6615 14.2764 58.7095 14.3732 58.7575 14.4699C58.8055 14.5424 58.8414 14.627 58.8654 14.7237H61.961L62.069 15.0864H62.5729L62.6809 15.449H63.3288C63.3768 15.5457 63.4008 15.6666 63.4008 15.8117C63.4248 15.9326 63.4488 16.0534 63.4728 16.1743L63.5087 16.537H63.7247C63.7487 16.5853 63.7607 16.6458 63.7607 16.7183C63.7607 16.7908 63.7607 16.8513 63.7607 16.8996H63.8687V17.4436H64.1926V17.5524C64.1926 17.6491 64.1806 17.7458 64.1566 17.8425C64.1566 17.9392 64.1566 18.048 64.1566 18.1689H63.7967V18.3503H63.8687C63.8687 18.447 63.8567 18.5437 63.8327 18.6404C63.8327 18.7129 63.8207 18.7975 63.7967 18.8942H63.9047L63.7967 19.4382H64.0847C64.0607 19.5349 64.0367 19.6316 64.0127 19.7283C63.9887 19.8009 63.9527 19.8855 63.9047 19.9822H63.5087C63.5087 20.0064 63.4967 20.0305 63.4728 20.0547C63.4728 20.0789 63.4728 20.1152 63.4728 20.1635H64.3366L64.1207 20.7075H61.709C61.685 20.8042 61.637 20.9009 61.565 20.9976C61.517 21.0702 61.4691 21.1548 61.4211 21.2515H66.4963L66.3883 21.4328H68.584C68.536 21.5295 68.476 21.6262 68.404 21.7229C68.356 21.7955 68.296 21.8801 68.224 21.9768H63.7247C63.7007 22.001 63.6767 22.0251 63.6527 22.0493C63.6287 22.0735 63.6047 22.1098 63.5807 22.1581ZM54.2221 7.108H55.302C55.23 7.08383 55.146 7.07174 55.05 7.07174C54.978 7.07174 54.894 7.07174 54.7981 7.07174C54.7021 7.07174 54.6061 7.07174 54.5101 7.07174C54.4141 7.07174 54.3181 7.08383 54.2221 7.108Z" fill="url(#paint2_linear_20_450)"/>
  <path d="M89.2184 19.4382H92.062V19.9822H86.5908V20.7075H90.1183V21.4328H87.0228V22.1581H87.4187V22.7021H87.1667V23.0647H86.4108V23.4274H86.3749V23.7901H87.1307V24.5154H88.1746V24.7692C88.1746 24.8176 88.1626 24.8538 88.1386 24.878H81.7316C81.7076 24.9264 81.6956 24.9868 81.6956 25.0593H84.1792C84.1072 25.3011 83.9752 25.4824 83.7832 25.6033H83.0993C82.9794 25.7 82.8114 25.7484 82.5954 25.7484H63.8423C63.6503 25.7484 63.4703 25.7 63.3023 25.6033H63.9862C63.8183 25.4824 63.6863 25.3011 63.5903 25.0593H61.0707C61.0467 25.011 61.0347 24.9505 61.0347 24.878H67.4777V24.5154H66.4339V23.7901H65.678V23.4274H65.714V23.0647H66.4699V22.7021H66.7218V22.1581H66.3259V21.4328H69.4214V20.7075H65.8939V19.9822H71.3651V19.4382H68.5215V19.0756H69.3494V18.7129H69.7094V18.3503H65.714V17.9876H64.7781V17.4436H68.1256V17.2623H65.462V16.8996H66.2539V16.537H66.8298V15.993H66.7578V15.2677H66.3979V14.5424H65.858V14.1797H66.2899V13.4544H65.8939V13.0918H66.4699V12.5478H66.6138V12.0038H67.2617V11.8225H66.6498V11.0972H66.1099V10.5532H66.2539V10.0092H66.3259V9.28392H66.8658V8.55862H66.0739V7.83331H66.1819V7.108H67.1898V6.56402H66.6498V6.02004H66.3619V5.83872H67.8736V5.29474H70.5372V4.93209H69.4574V4.56943H65.9659V4.3881H66.3619V3.84412H66.3979V3.30014H66.5059V2.57484H66.4699V1.6682H66.3979V1.34182C66.3979 1.24511 66.4099 1.17258 66.4339 1.12423H66.0739C66.1699 0.616511 66.4819 0.362653 67.0098 0.362653H85.475C86.0269 0.362653 86.3389 0.616511 86.4108 1.12423H86.7708C86.7948 1.17258 86.8068 1.24511 86.8068 1.34182V1.6682H86.8788V2.57484H86.9148V3.30014H86.8068V3.84412H86.7708V4.3881H86.3749V4.56943H89.8663V4.93209H90.9462V5.29474H88.2826V5.83872H86.7708V6.02004H87.0587V6.56402H87.5987C87.5507 6.80579 87.4667 6.98712 87.3467 7.108H86.3389C86.1709 7.3256 85.9309 7.43439 85.619 7.43439H74.8206V7.83331H74.7126V8.55862H75.5045V9.28392H74.9646V9.71911H84.9711C85.235 9.71911 85.463 9.81581 85.655 10.0092H85.583C85.703 10.1301 85.7869 10.3114 85.8349 10.5532H85.727V11.0972H86.2669V11.8225H86.8788V12.0038H86.2309V12.5478H86.0869V13.0918H85.511V13.4544H85.9069V14.1797H85.475V14.5424H86.0149V15.2677H86.3749V15.4128C86.3749 15.6787 86.3149 15.8721 86.1949 15.993H86.2669C86.0749 16.259 85.8109 16.3919 85.475 16.3919H75.4685V16.537H74.8926V16.8996H74.1007V17.2623H76.7643V17.4436H73.4168V17.9876H74.3527V18.3503H78.3481V18.6766H89.4344C89.5544 18.6766 89.6504 18.6887 89.7223 18.7129H89.3264C89.5664 18.7854 89.7463 18.9063 89.8663 19.0756H89.0384C89.1344 19.2206 89.1944 19.3415 89.2184 19.4382Z" fill="url(#paint3_linear_20_450)"/>
  <path d="M113.406 11.2785H111.643C111.619 11.3752 111.595 11.4719 111.571 11.5686C111.547 11.6412 111.511 11.7258 111.463 11.8225H112.471L112.363 12.1851H111.499C111.427 12.4027 111.331 12.6445 111.211 12.9105H110.671C110.575 13.1522 110.443 13.394 110.275 13.6358H110.347C110.251 13.7566 110.167 13.8775 110.095 13.9984C110.023 14.1193 109.939 14.2402 109.843 14.3611H113.73L113.263 14.905H110.059C109.963 15.0259 109.843 15.1468 109.699 15.2677C109.555 15.3886 109.423 15.5095 109.303 15.6304H109.771C109.675 15.7271 109.555 15.8238 109.411 15.9205C109.291 15.993 109.171 16.0776 109.051 16.1743H110.239L110.095 16.2831L110.419 16.8996H109.555L109.951 17.6249H110.059L110.167 17.8063H110.131L110.491 18.5316H110.851L111.067 18.8942H108.295L108.583 19.4382H111.103L111.319 19.8009H110.527L110.815 20.3448H114.378L114.774 21.0702H112.399L112.687 21.6141H111.571L112.147 22.7021H112.399L112.615 23.0647H112.507L112.615 23.2461H110.923L111.319 23.9714L111.391 24.1527H110.275L110.455 24.5516C110.527 24.6483 110.563 24.7571 110.563 24.878H111.319V24.9505C111.319 25.2165 111.211 25.4341 110.995 25.6033H111.967C111.847 25.7 111.691 25.7484 111.499 25.7484H104.12C103.976 25.7484 103.844 25.7363 103.724 25.7121C103.628 25.6638 103.52 25.6275 103.4 25.6033H102.428C102.236 25.5066 102.068 25.3857 101.924 25.2407C101.804 25.0956 101.708 24.9747 101.636 24.878H100.916L100.844 24.7692L100.592 24.1527H101.744L101.636 23.9714H98.2168V24.1527H96.3811V24.878H99.2966C99.2486 25.2165 99.0927 25.4583 98.8287 25.6033H98.5767C98.4088 25.7 98.2288 25.7484 98.0368 25.7484H90.9819C90.7659 25.7484 90.5979 25.7 90.478 25.6033H90.7659C90.5019 25.4583 90.346 25.2165 90.298 24.878H87.4184C87.4184 24.8538 87.4184 24.8417 87.4184 24.8417C87.3944 24.8176 87.3824 24.7934 87.3824 24.7692V24.1527H89.2181V23.9714H92.8176V23.2461H88.9662V23.0647H91.2338V22.7021H90.478V22.1581H91.7378V21.6141H89.6861V21.0702H92.4577V20.3448H90.8739V19.8009H90.8379V19.6195H90.6219V19.4382H89.6501V18.8942H90.8739V18.5316H90.5499V17.8063H90.5859V17.6249H90.478V16.8996H91.3418V16.1743H90.118V15.6304H89.6501V14.905H92.8176V14.3611H88.9302V13.6358H88.8582V12.9105H89.3981V12.1851H90.226V11.8225H89.2181V11.2785H90.9819V10.9159H93.5735V10.5532H90.01V10.3719H90.19V10.1906H90.5139V10.0092H90.5499V9.64657H90.478V9.1026H90.6219V8.37729H90.442V8.01464H90.6219V7.47066H90.478V7.28933H90.5859V6.92668H90.5499V6.74535H90.406V6.56402H90.7299V6.02004H91.0179V5.47606H89.3261V4.75076H89.7221V4.02545H89.5061V3.48147H90.478V2.93749H90.8379V2.39351H90.19V2.03086H90.442V1.84953H90.5139V1.30555H90.5859C90.5859 1.03961 90.6939 0.797837 90.9099 0.580246H92.8536C92.9976 0.435184 93.2015 0.362653 93.4655 0.362653H104.12C105.152 0.362653 106.112 0.435184 106.999 0.580246H105.092C106.052 0.725307 106.963 0.967076 107.827 1.30555H107.755C108.163 1.45061 108.559 1.63194 108.943 1.84953H108.871L109.195 2.03086H108.907C109.027 2.07921 109.123 2.13965 109.195 2.21218C109.291 2.28472 109.387 2.34516 109.483 2.39351H110.131C110.251 2.49022 110.371 2.58693 110.491 2.68363C110.611 2.75617 110.719 2.84078 110.815 2.93749H110.455C110.575 3.0342 110.671 3.13091 110.743 3.22761C110.839 3.30014 110.935 3.38476 111.031 3.48147H110.059C110.155 3.57818 110.239 3.67489 110.311 3.77159C110.383 3.84412 110.455 3.92874 110.527 4.02545H110.707C110.899 4.26722 111.067 4.50899 111.211 4.75076H110.851C110.923 4.84746 110.983 4.96835 111.031 5.11341C111.103 5.2343 111.175 5.35518 111.247 5.47606H112.939L113.155 6.02004H112.867C112.891 6.11675 112.915 6.21346 112.939 6.31017C112.987 6.3827 113.023 6.46732 113.047 6.56402H112.687L112.759 6.74535H112.903C112.927 6.7937 112.939 6.85415 112.939 6.92668L113.047 7.28933H113.155C113.155 7.36186 113.167 7.4223 113.191 7.47066H113.227C113.251 7.56737 113.263 7.66407 113.263 7.76078C113.287 7.83331 113.299 7.91793 113.299 8.01464H112.831C112.831 8.06299 112.831 8.12343 112.831 8.19596C112.831 8.26849 112.843 8.32894 112.867 8.37729H113.083C113.083 8.49817 113.083 8.61906 113.083 8.73994C113.107 8.86083 113.119 8.98171 113.119 9.1026V9.46525H113.335V9.64657H113.119V10.0092H112.759C112.759 10.0334 112.747 10.0576 112.723 10.0818C112.723 10.1059 112.723 10.1422 112.723 10.1906H113.083C113.083 10.2147 113.071 10.2389 113.047 10.2631C113.047 10.2873 113.047 10.3235 113.047 10.3719H114.738C114.714 10.4202 114.702 10.4807 114.702 10.5532H115.17L115.134 10.9159H113.478C113.43 11.0609 113.406 11.1818 113.406 11.2785ZM99.0087 10.5532H102.572V10.9159H99.9805V10.9521H102.608C102.776 10.9521 102.908 10.94 103.004 10.9159H104.66C104.924 10.8433 105.164 10.7224 105.38 10.5532H104.876L105.056 10.3719H103.364C103.436 10.2994 103.484 10.2389 103.508 10.1906H103.148L103.256 10.0092H103.616L103.724 9.64657H103.904C103.928 9.59822 103.94 9.53778 103.94 9.46525H103.724L103.76 9.1026C103.76 8.86083 103.724 8.61906 103.652 8.37729H103.436C103.412 8.32894 103.388 8.26849 103.364 8.19596C103.364 8.12343 103.34 8.06299 103.292 8.01464H103.796C103.7 7.82122 103.568 7.6399 103.4 7.47066H103.328C103.256 7.39813 103.172 7.33768 103.076 7.28933H102.968C102.728 7.16845 102.476 7.108 102.212 7.108H99.5846V7.28933H99.4766V7.47066H99.6206V8.01464H99.4406V8.37729H99.6206V9.1026H99.4766V9.64657H99.5486V10.0092H99.5126V10.1906H99.1886V10.3719H99.0087V10.5532ZM101.852 18.8942L101.708 18.5316H101.312L101.024 17.8425H99.5486V18.5316H99.8725V18.8942H101.852ZM98.6487 18.8942V19.4382H99.3326L99.1167 18.8942H98.6487ZM101.924 19.6195L101.852 19.4382H99.6206V19.6195H99.8365V19.8009H99.8725V20.3448H101.456V21.0702H98.6847V21.6141H100.736V22.1581H99.4766V22.7021H100.232V23.0647H97.9648V23.2461H103.04L102.932 23.0647H103.04L102.86 22.7021H102.572L102.356 22.1581L102.104 21.6141H103.256L103.004 21.0702H105.344L105.02 20.3448H101.456L101.24 19.8009H102.032L101.924 19.6195Z" fill="url(#paint4_linear_20_450)"/>
  <path d="M140 3.6628H133.305V4.3881H135.861V4.93209H138.632V5.47606H138.56V6.02004H139.604V6.74535H135.681V6.92668H134.925V7.18053C134.925 7.34977 134.889 7.50692 134.817 7.65198H137.372C137.204 7.99046 136.928 8.1597 136.545 8.1597H130.569V8.19596H130.929V8.92127H131.001V9.64657H130.821V10.3719H130.353V10.9159H132.153V11.2785H130.641V11.8225H129.85V12.5478H131.217V12.9105H130.965V13.6358H130.713V14.3611H130.281V15.0864H129.886V15.6304H131.217V16.1743H130.677V16.8996H130.893V17.081H131.145V17.4436H132.945V17.9876H131.721V18.7129H132.261V19.4382H130.749V20.1635H131.361V20.5262H131.613V21.0702H132.189V21.7955H131.973V22.3394H131.037V22.8834H130.929V23.2461H130.893V23.7901H131.289V24.334H130.965V24.7692C130.965 24.8901 130.953 24.9868 130.929 25.0593H130.569C130.497 25.3011 130.365 25.4824 130.173 25.6033H130.245C130.125 25.7 129.958 25.7484 129.742 25.7484H122.543C122.351 25.7484 122.171 25.7 122.003 25.6033H121.931C121.763 25.4824 121.631 25.3011 121.535 25.0593H121.859C121.835 24.9868 121.823 24.8901 121.823 24.7692V24.334H122.147V23.7901H121.751V23.2461H121.787V22.8834H121.895V22.3394H122.831V21.7955H123.047V21.0702H122.471V20.5262H122.219V20.1635H121.607V19.4382H123.119V18.7129H122.579V17.9876H123.802V17.4436H122.003V17.081H121.751V16.8996H121.535V16.1743H122.075V15.6304H120.743V15.0864H121.139V14.3611H121.571V13.6358H121.823V12.9105H122.075V12.5478H120.707V11.8225H121.499V11.2785H123.011V10.9159H121.211V10.3719H121.679V9.64657H121.859V8.92127H121.787V8.19596H121.427V8.1597H115.452C115.092 8.1597 114.804 7.99046 114.588 7.65198H112.032C112.008 7.57945 111.984 7.50692 111.96 7.43439C111.912 7.36186 111.888 7.27724 111.888 7.18053V6.92668H112.644V6.74535H116.568V6.02004H115.524V5.47606H115.596V4.93209H112.824V4.3881H110.268V3.6628H116.963V3.11882H113.22V2.39351H113.94V1.6682H114.876V1.48688H115.416V1.34182C115.416 1.10005 115.488 0.906634 115.632 0.761573H114.84C115.032 0.495626 115.296 0.362653 115.632 0.362653H136.724C137.06 0.362653 137.324 0.495626 137.516 0.761573H138.272C138.392 0.93081 138.452 1.12422 138.452 1.34182V1.48688H137.912V1.6682H136.976V2.39351H136.257V3.11882H140V3.6628Z" fill="url(#paint5_linear_20_450)"/>
  <defs>
    <linearGradient id="paint0_linear_20_450" x1="119.978" y1="-3.45047" x2="28.8728" y2="38.9574" gradientUnits="userSpaceOnUse">
      <stop stop-color="#0092FF"/>
      <stop offset="1" stop-color="#003D99"/>
    </linearGradient>
    <linearGradient id="paint1_linear_20_450" x1="119.978" y1="-3.45047" x2="28.8728" y2="38.9574" gradientUnits="userSpaceOnUse">
      <stop stop-color="#0092FF"/>
      <stop offset="1" stop-color="#003D99"/>
    </linearGradient>
    <linearGradient id="paint2_linear_20_450" x1="119.978" y1="-3.45047" x2="28.8728" y2="38.9574" gradientUnits="userSpaceOnUse">
      <stop stop-color="#0092FF"/>
      <stop offset="1" stop-color="#003D99"/>
    </linearGradient>
    <linearGradient id="paint3_linear_20_450" x1="119.978" y1="-3.45047" x2="28.8728" y2="38.9574" gradientUnits="userSpaceOnUse">
      <stop stop-color="#0092FF"/>
      <stop offset="1" stop-color="#003D99"/>
    </linearGradient>
    <linearGradient id="paint4_linear_20_450" x1="119.978" y1="-3.45047" x2="28.8728" y2="38.9574" gradientUnits="userSpaceOnUse">
      <stop stop-color="#0092FF"/>
      <stop offset="1" stop-color="#003D99"/>
    </linearGradient>
    <linearGradient id="paint5_linear_20_450" x1="119.978" y1="-3.45047" x2="28.8728" y2="38.9574" gradientUnits="userSpaceOnUse">
      <stop stop-color="#0092FF"/>
      <stop offset="1" stop-color="#003D99"/>
    </linearGradient>
  </defs>
</svg>