<svg width="1244" height="999" viewBox="0 0 1244 999" fill="none" xmlns="http://www.w3.org/2000/svg">
<g filter="url(#filter0_b_5116_3518)">
<mask id="path-1-inside-1_5116_3518" fill="white">
<path fill-rule="evenodd" clip-rule="evenodd" d="M123.284 418.153C49.5378 379.232 0 307.012 0 224.351C0 100.445 111.304 0 248.605 0C328.85 0 400.215 34.3098 445.67 87.5606C491.125 34.3098 562.49 0 642.734 0C731.728 0 809.8 42.1988 853.72 105.633C865.989 103.952 878.551 103.081 891.339 103.081C1028.64 103.081 1139.94 203.526 1139.94 327.432C1139.94 331.421 1139.83 335.387 1139.6 339.325C1202.24 380.061 1243.02 446.466 1243.02 521.466C1243.02 607.661 1189.16 682.503 1110.15 720.075C1111.18 728.352 1111.7 736.765 1111.7 745.289C1111.7 869.195 1000.4 969.64 863.099 969.64C811.466 969.64 763.509 955.435 723.766 931.119C678.4 985.504 606.261 1020.67 525.021 1020.67C387.72 1020.67 276.416 920.225 276.416 796.32L276.416 796.069C151.7 784.024 54.5713 688.75 54.5713 573.003C54.5713 512.956 80.712 458.418 123.284 418.153Z"/>
</mask>
<path fill-rule="evenodd" clip-rule="evenodd" d="M123.284 418.153C49.5378 379.232 0 307.012 0 224.351C0 100.445 111.304 0 248.605 0C328.85 0 400.215 34.3098 445.67 87.5606C491.125 34.3098 562.49 0 642.734 0C731.728 0 809.8 42.1988 853.72 105.633C865.989 103.952 878.551 103.081 891.339 103.081C1028.64 103.081 1139.94 203.526 1139.94 327.432C1139.94 331.421 1139.83 335.387 1139.6 339.325C1202.24 380.061 1243.02 446.466 1243.02 521.466C1243.02 607.661 1189.16 682.503 1110.15 720.075C1111.18 728.352 1111.7 736.765 1111.7 745.289C1111.7 869.195 1000.4 969.64 863.099 969.64C811.466 969.64 763.509 955.435 723.766 931.119C678.4 985.504 606.261 1020.67 525.021 1020.67C387.72 1020.67 276.416 920.225 276.416 796.32L276.416 796.069C151.7 784.024 54.5713 688.75 54.5713 573.003C54.5713 512.956 80.712 458.418 123.284 418.153Z" fill="#4952AC" fill-opacity="0.7"/>
<path d="M123.284 418.153L123.971 418.879L124.985 417.92L123.751 417.268L123.284 418.153ZM445.67 87.5606L444.909 88.2099L445.67 89.1009L446.43 88.2099L445.67 87.5606ZM853.72 105.633L852.898 106.202L853.248 106.707L853.856 106.624L853.72 105.633ZM1139.6 339.325L1138.6 339.267L1138.57 339.847L1139.06 340.164L1139.6 339.325ZM1110.15 720.075L1109.72 719.172L1109.07 719.482L1109.16 720.198L1110.15 720.075ZM723.766 931.119L724.288 930.266L723.551 929.815L722.998 930.478L723.766 931.119ZM276.416 796.32L275.416 796.319V796.32H276.416ZM276.416 796.069L277.416 796.07L277.417 795.161L276.513 795.074L276.416 796.069ZM-1 224.351C-1 307.434 48.7906 379.969 122.817 419.037L123.751 417.268C50.2851 378.496 1 306.591 1 224.351H-1ZM248.605 -1C110.851 -1 -1 99.7989 -1 224.351H1C1 101.092 111.757 1 248.605 1V-1ZM446.43 86.9114C400.78 33.4314 329.134 -1 248.605 -1V1C328.566 1 399.65 35.1882 444.909 88.2099L446.43 86.9114ZM642.734 -1C562.206 -1 490.56 33.4314 444.909 86.9114L446.43 88.2099C491.69 35.1882 562.774 1 642.734 1V-1ZM854.542 105.064C810.427 41.3477 732.041 -1 642.734 -1V1C731.415 1 809.173 43.0499 852.898 106.202L854.542 105.064ZM891.339 102.081C878.506 102.081 865.898 102.956 853.585 104.642L853.856 106.624C866.079 104.949 878.597 104.081 891.339 104.081V102.081ZM1140.94 327.432C1140.94 202.88 1029.09 102.081 891.339 102.081V104.081C1028.19 104.081 1138.94 204.173 1138.94 327.432H1140.94ZM1140.6 339.383C1140.83 335.425 1140.94 331.441 1140.94 327.432H1138.94C1138.94 331.402 1138.83 335.348 1138.6 339.267L1140.6 339.383ZM1139.06 340.164C1201.45 380.739 1242.02 446.846 1242.02 521.466H1244.02C1244.02 446.085 1203.04 379.383 1140.15 338.487L1139.06 340.164ZM1242.02 521.466C1242.02 607.221 1188.44 681.741 1109.72 719.172L1110.58 720.978C1189.89 683.266 1244.02 608.102 1244.02 521.466H1242.02ZM1112.7 745.289C1112.7 736.724 1112.18 728.27 1111.14 719.952L1109.16 720.198C1110.18 728.435 1110.7 736.806 1110.7 745.289H1112.7ZM863.099 970.64C1000.85 970.64 1112.7 869.841 1112.7 745.289H1110.7C1110.7 868.548 999.947 968.64 863.099 968.64V970.64ZM723.244 931.972C763.145 956.384 811.282 970.64 863.099 970.64V968.64C811.65 968.64 763.874 954.486 724.288 930.266L723.244 931.972ZM525.021 1021.67C606.549 1021.67 678.972 986.379 724.534 931.76L722.998 930.478C677.828 984.628 605.974 1019.67 525.021 1019.67V1021.67ZM275.416 796.32C275.416 920.871 387.267 1021.67 525.021 1021.67V1019.67C388.174 1019.67 277.416 919.579 277.416 796.32H275.416ZM275.416 796.069L275.416 796.319L277.416 796.32L277.416 796.07L275.416 796.069ZM53.5713 573.003C53.5713 689.351 151.182 784.979 276.32 797.065L276.513 795.074C152.218 783.07 55.5713 688.149 55.5713 573.003H53.5713ZM122.597 417.426C79.8454 457.861 53.5713 512.654 53.5713 573.003H55.5713C55.5713 513.257 81.5787 458.975 123.971 418.879L122.597 417.426Z" fill="white" fill-opacity="0.1" mask="url(#path-1-inside-1_5116_3518)"/>
</g>
<g filter="url(#filter1_b_5116_3518)">
<mask id="path-3-inside-2_5116_3518" fill="white">
<path fill-rule="evenodd" clip-rule="evenodd" d="M218.96 442.042C159.166 410.485 119 351.929 119 284.906C119 184.442 209.247 103 320.571 103C385.634 103 443.498 130.819 480.353 173.995C517.209 130.819 575.072 103 640.135 103C712.292 103 775.593 137.215 811.205 188.648C821.152 187.286 831.338 186.579 841.706 186.579C953.031 186.579 1043.28 268.021 1043.28 368.485C1043.28 371.72 1043.18 374.934 1043 378.128C1093.79 411.156 1126.86 464.998 1126.86 525.809C1126.86 595.697 1083.18 656.38 1019.12 686.843C1019.95 693.555 1020.38 700.376 1020.38 707.288C1020.38 807.751 930.134 889.193 818.809 889.193C776.945 889.193 738.061 877.676 705.837 857.961C669.054 902.057 610.563 930.57 544.692 930.57C433.368 930.57 343.121 849.128 343.121 748.665L343.121 748.461C242 738.695 163.247 661.446 163.247 567.597C163.247 518.91 184.442 474.69 218.96 442.042Z"/>
</mask>
<path fill-rule="evenodd" clip-rule="evenodd" d="M218.96 442.042C159.166 410.485 119 351.929 119 284.906C119 184.442 209.247 103 320.571 103C385.634 103 443.498 130.819 480.353 173.995C517.209 130.819 575.072 103 640.135 103C712.292 103 775.593 137.215 811.205 188.648C821.152 187.286 831.338 186.579 841.706 186.579C953.031 186.579 1043.28 268.021 1043.28 368.485C1043.28 371.72 1043.18 374.934 1043 378.128C1093.79 411.156 1126.86 464.998 1126.86 525.809C1126.86 595.697 1083.18 656.38 1019.12 686.843C1019.95 693.555 1020.38 700.376 1020.38 707.288C1020.38 807.751 930.134 889.193 818.809 889.193C776.945 889.193 738.061 877.676 705.837 857.961C669.054 902.057 610.563 930.57 544.692 930.57C433.368 930.57 343.121 849.128 343.121 748.665L343.121 748.461C242 738.695 163.247 661.446 163.247 567.597C163.247 518.91 184.442 474.69 218.96 442.042Z" fill="#6C92C6" fill-opacity="0.7"/>
<path d="M218.96 442.042L219.647 442.769L220.662 441.81L219.427 441.158L218.96 442.042ZM480.353 173.995L479.593 174.644L480.353 175.535L481.114 174.644L480.353 173.995ZM811.205 188.648L810.382 189.217L810.732 189.722L811.34 189.639L811.205 188.648ZM1043 378.128L1042 378.07L1041.97 378.649L1042.45 378.966L1043 378.128ZM1019.12 686.843L1018.69 685.94L1018.04 686.25L1018.13 686.966L1019.12 686.843ZM705.837 857.961L706.359 857.108L705.622 856.657L705.069 857.32L705.837 857.961ZM343.121 748.665L342.121 748.664V748.665H343.121ZM343.121 748.461L344.121 748.462L344.122 747.553L343.217 747.466L343.121 748.461ZM118 284.906C118 352.35 158.419 411.222 218.493 442.927L219.427 441.158C159.913 409.749 120 351.507 120 284.906H118ZM320.571 102C208.793 102 118 183.796 118 284.906H120C120 185.088 209.7 104 320.571 104V102ZM481.114 173.346C444.063 129.94 385.918 102 320.571 102V104C385.351 104 442.933 131.697 479.593 174.644L481.114 173.346ZM640.135 102C574.788 102 516.644 129.94 479.593 173.346L481.114 174.644C517.774 131.697 575.356 104 640.135 104V102ZM812.027 188.079C776.22 136.364 712.605 102 640.135 102V104C711.979 104 774.966 138.066 810.382 189.217L812.027 188.079ZM841.706 185.579C831.292 185.579 821.061 186.289 811.069 187.657L811.34 189.639C821.243 188.283 831.383 187.579 841.706 187.579V185.579ZM1044.28 368.485C1044.28 267.375 953.484 185.579 841.706 185.579V187.579C952.578 187.579 1042.28 268.667 1042.28 368.485H1044.28ZM1044 378.185C1044.18 374.973 1044.28 371.739 1044.28 368.485H1042.28C1042.28 371.7 1042.18 374.896 1042 378.07L1044 378.185ZM1042.45 378.966C1093 411.834 1125.86 465.379 1125.86 525.809H1127.86C1127.86 464.617 1094.58 410.478 1043.54 377.289L1042.45 378.966ZM1125.86 525.809C1125.86 595.256 1082.46 655.618 1018.69 685.94L1019.55 687.746C1083.91 657.142 1127.86 596.138 1127.86 525.809H1125.86ZM1021.38 707.288C1021.38 700.335 1020.95 693.472 1020.11 686.72L1018.13 686.966C1018.96 693.637 1019.38 700.417 1019.38 707.288H1021.38ZM818.809 890.193C930.587 890.193 1021.38 808.398 1021.38 707.288H1019.38C1019.38 807.105 929.681 888.193 818.809 888.193V890.193ZM705.315 858.814C737.697 878.625 776.761 890.193 818.809 890.193V888.193C777.129 888.193 738.426 876.727 706.359 857.108L705.315 858.814ZM544.692 931.57C610.85 931.57 669.626 902.932 706.605 858.601L705.069 857.32C668.482 901.181 610.276 929.57 544.692 929.57V931.57ZM342.121 748.665C342.121 849.775 432.914 931.57 544.692 931.57V929.57C433.821 929.57 344.121 848.482 344.121 748.665H342.121ZM342.121 748.461L342.121 748.664L344.121 748.665L344.121 748.462L342.121 748.461ZM162.247 567.597C162.247 662.047 241.481 739.65 343.025 749.457L343.217 747.466C242.518 737.741 164.247 660.845 164.247 567.597H162.247ZM218.273 441.316C183.575 474.133 162.247 518.608 162.247 567.597H164.247C164.247 519.211 185.309 475.247 219.647 442.769L218.273 441.316Z" fill="white" fill-opacity="0.1" mask="url(#path-3-inside-2_5116_3518)"/>
</g>
<g filter="url(#filter2_b_5116_3518)">
<mask id="path-5-inside-3_5116_3518" fill="white">
<path fill-rule="evenodd" clip-rule="evenodd" d="M295.98 460.667C247.539 435.102 215 387.664 215 333.367C215 251.978 288.111 186 378.298 186C431.008 186 477.884 208.537 507.742 243.515C537.599 208.537 584.476 186 637.185 186C695.641 186 746.924 213.719 775.773 255.386C783.832 254.282 792.083 253.71 800.483 253.71C890.67 253.71 963.781 319.688 963.781 401.077C963.781 403.698 963.706 406.303 963.556 408.89C1004.7 435.647 1031.49 479.266 1031.49 528.531C1031.49 585.149 996.11 634.309 944.213 658.989C944.886 664.425 945.232 669.951 945.232 675.549C945.232 756.938 872.121 822.916 781.934 822.916C748.019 822.916 716.518 813.585 690.412 797.614C660.614 833.337 613.228 856.437 559.864 856.437C469.677 856.437 396.566 790.459 396.566 709.071L396.566 708.905C314.645 700.993 250.845 638.411 250.845 562.382C250.845 522.94 268.016 487.116 295.98 460.667Z"/>
</mask>
<path fill-rule="evenodd" clip-rule="evenodd" d="M295.98 460.667C247.539 435.102 215 387.664 215 333.367C215 251.978 288.111 186 378.298 186C431.008 186 477.884 208.537 507.742 243.515C537.599 208.537 584.476 186 637.185 186C695.641 186 746.924 213.719 775.773 255.386C783.832 254.282 792.083 253.71 800.483 253.71C890.67 253.71 963.781 319.688 963.781 401.077C963.781 403.698 963.706 406.303 963.556 408.89C1004.7 435.647 1031.49 479.266 1031.49 528.531C1031.49 585.149 996.11 634.309 944.213 658.989C944.886 664.425 945.232 669.951 945.232 675.549C945.232 756.938 872.121 822.916 781.934 822.916C748.019 822.916 716.518 813.585 690.412 797.614C660.614 833.337 613.228 856.437 559.864 856.437C469.677 856.437 396.566 790.459 396.566 709.071L396.566 708.905C314.645 700.993 250.845 638.411 250.845 562.382C250.845 522.94 268.016 487.116 295.98 460.667Z" fill="#8DCDDB" fill-opacity="0.6"/>
<path d="M295.98 460.667L296.667 461.394L297.682 460.434L296.447 459.783L295.98 460.667ZM507.742 243.515L506.981 244.164L507.742 245.055L508.502 244.164L507.742 243.515ZM775.773 255.386L774.951 255.955L775.301 256.46L775.909 256.377L775.773 255.386ZM963.556 408.89L962.558 408.832L962.524 409.412L963.011 409.728L963.556 408.89ZM944.213 658.989L943.783 658.086L943.131 658.396L943.22 659.112L944.213 658.989ZM690.412 797.614L690.934 796.761L690.198 796.31L689.644 796.973L690.412 797.614ZM396.566 709.071L395.566 709.07V709.071H396.566ZM396.566 708.905L397.566 708.906L397.567 707.997L396.662 707.91L396.566 708.905ZM214 333.367C214 388.085 246.792 435.838 295.514 461.552L296.447 459.783C248.287 434.366 216 387.242 216 333.367H214ZM378.298 185C287.658 185 214 251.332 214 333.367H216C216 252.625 288.564 187 378.298 187V185ZM508.502 242.865C478.449 207.658 431.291 185 378.298 185V187C430.724 187 477.319 209.415 506.981 244.164L508.502 242.865ZM637.185 185C584.192 185 537.034 207.658 506.981 242.865L508.502 244.164C538.164 209.415 584.76 187 637.185 187V185ZM776.595 254.817C747.551 212.868 695.954 185 637.185 185V187C695.328 187 746.297 214.57 774.951 255.955L776.595 254.817ZM800.483 252.71C792.038 252.71 783.741 253.285 775.637 254.395L775.909 256.377C783.922 255.279 792.129 254.71 800.483 254.71V252.71ZM964.781 401.077C964.781 319.042 891.124 252.71 800.483 252.71V254.71C890.217 254.71 962.781 320.335 962.781 401.077H964.781ZM964.554 408.948C964.705 406.341 964.781 403.717 964.781 401.077H962.781C962.781 403.678 962.706 406.264 962.558 408.832L964.554 408.948ZM963.011 409.728C1003.91 436.326 1030.49 479.647 1030.49 528.531H1032.49C1032.49 478.885 1005.49 434.969 964.101 408.052L963.011 409.728ZM1030.49 528.531C1030.49 584.708 995.384 633.547 943.783 658.086L944.642 659.892C996.836 635.071 1032.49 585.589 1032.49 528.531H1030.49ZM946.232 675.549C946.232 669.909 945.884 664.343 945.205 658.866L943.22 659.112C943.889 664.507 944.232 669.992 944.232 675.549H946.232ZM781.934 823.916C872.574 823.916 946.232 757.584 946.232 675.549H944.232C944.232 756.291 871.668 821.916 781.934 821.916V823.916ZM689.89 798.467C716.153 814.535 747.835 823.916 781.934 823.916V821.916C748.203 821.916 716.883 812.636 690.934 796.761L689.89 798.467ZM559.864 857.437C613.515 857.437 661.186 834.213 691.18 798.254L689.644 796.973C660.042 832.462 612.941 855.437 559.864 855.437V857.437ZM395.566 709.071C395.566 791.105 469.224 857.437 559.864 857.437V855.437C470.13 855.437 397.566 789.813 397.566 709.071H395.566ZM395.566 708.904L395.566 709.07L397.566 709.071L397.566 708.906L395.566 708.904ZM249.845 562.382C249.845 639.013 314.127 701.948 396.47 709.901L396.662 707.91C315.164 700.039 251.845 637.81 251.845 562.382H249.845ZM295.293 459.941C267.15 486.559 249.845 522.638 249.845 562.382H251.845C251.845 523.241 268.883 487.673 296.667 461.394L295.293 459.941Z" fill="white" fill-opacity="0.1" mask="url(#path-5-inside-3_5116_3518)"/>
</g>
<g filter="url(#filter3_b_5116_3518)">
<mask id="path-7-inside-4_5116_3518" fill="white">
<path fill-rule="evenodd" clip-rule="evenodd" d="M360.162 472.015C321.183 451.443 295 413.271 295 369.581C295 304.09 353.83 251 426.4 251C468.813 251 506.533 269.134 530.558 297.28C554.584 269.134 592.304 251 634.717 251C681.754 251 723.019 273.304 746.234 306.832C752.718 305.944 759.358 305.484 766.117 305.484C838.687 305.484 897.517 358.574 897.517 424.064C897.517 426.173 897.456 428.269 897.335 430.351C930.445 451.882 952 486.98 952 526.622C952 572.18 923.53 611.738 881.77 631.597C882.312 635.971 882.591 640.417 882.591 644.922C882.591 710.412 823.761 763.503 751.191 763.503C723.9 763.503 698.553 755.995 677.547 743.143C653.569 771.889 615.44 790.476 572.499 790.476C499.929 790.476 441.099 737.386 441.099 671.896L441.099 671.763C375.181 665.396 323.844 615.039 323.844 553.861C323.844 522.123 337.66 493.297 360.162 472.015Z"/>
</mask>
<path fill-rule="evenodd" clip-rule="evenodd" d="M360.162 472.015C321.183 451.443 295 413.271 295 369.581C295 304.09 353.83 251 426.4 251C468.813 251 506.533 269.134 530.558 297.28C554.584 269.134 592.304 251 634.717 251C681.754 251 723.019 273.304 746.234 306.832C752.718 305.944 759.358 305.484 766.117 305.484C838.687 305.484 897.517 358.574 897.517 424.064C897.517 426.173 897.456 428.269 897.335 430.351C930.445 451.882 952 486.98 952 526.622C952 572.18 923.53 611.738 881.77 631.597C882.312 635.971 882.591 640.417 882.591 644.922C882.591 710.412 823.761 763.503 751.191 763.503C723.9 763.503 698.553 755.995 677.547 743.143C653.569 771.889 615.44 790.476 572.499 790.476C499.929 790.476 441.099 737.386 441.099 671.896L441.099 671.763C375.181 665.396 323.844 615.039 323.844 553.861C323.844 522.123 337.66 493.297 360.162 472.015Z" fill="#C2E5ED" fill-opacity="0.6"/>
<path d="M360.162 472.015L360.849 472.741L361.863 471.782L360.629 471.13L360.162 472.015ZM530.558 297.28L529.798 297.929L530.558 298.82L531.319 297.929L530.558 297.28ZM746.234 306.832L745.411 307.402L745.761 307.907L746.369 307.823L746.234 306.832ZM897.335 430.351L896.337 430.294L896.303 430.873L896.79 431.19L897.335 430.351ZM881.77 631.597L881.341 630.694L880.689 631.003L880.778 631.72L881.77 631.597ZM677.547 743.143L678.069 742.29L677.332 741.839L676.779 742.502L677.547 743.143ZM441.099 671.896L440.099 671.895V671.896H441.099ZM441.099 671.763L442.099 671.763L442.1 670.855L441.196 670.767L441.099 671.763ZM294 369.581C294 413.693 320.436 452.18 359.695 472.899L360.629 471.13C321.931 450.707 296 412.85 296 369.581H294ZM426.4 250C353.377 250 294 303.444 294 369.581H296C296 304.737 354.283 252 426.4 252V250ZM531.319 296.631C507.098 268.256 469.097 250 426.4 250V252C468.529 252 505.968 270.013 529.798 297.929L531.319 296.631ZM634.717 250C592.02 250 554.019 268.256 529.798 296.631L531.319 297.929C555.149 270.013 592.587 252 634.717 252V250ZM747.056 306.263C723.646 272.453 682.068 250 634.717 250V252C681.441 252 722.392 274.155 745.411 307.402L747.056 306.263ZM766.117 304.484C759.312 304.484 752.627 304.947 746.098 305.842L746.369 307.823C752.809 306.941 759.403 306.484 766.117 306.484V304.484ZM898.517 424.064C898.517 357.928 839.14 304.484 766.117 304.484V306.484C838.234 306.484 896.517 359.22 896.517 424.064H898.517ZM898.334 430.409C898.455 428.308 898.517 426.193 898.517 424.064H896.517C896.517 426.154 896.456 428.231 896.337 430.294L898.334 430.409ZM896.79 431.19C929.654 452.56 951 487.361 951 526.622H953C953 486.6 931.237 451.204 897.88 429.513L896.79 431.19ZM951 526.622C951 571.74 922.805 610.976 881.341 630.694L882.2 632.5C924.256 612.5 953 572.621 953 526.622H951ZM883.591 644.922C883.591 640.376 883.31 635.889 882.763 631.474L880.778 631.72C881.315 636.053 881.591 640.459 881.591 644.922H883.591ZM751.191 764.503C824.214 764.503 883.591 711.059 883.591 644.922H881.591C881.591 709.766 823.308 762.503 751.191 762.503V764.503ZM677.025 743.996C698.188 756.944 723.716 764.503 751.191 764.503V762.503C724.084 762.503 698.918 755.046 678.069 742.29L677.025 743.996ZM572.499 791.476C615.727 791.476 654.141 772.764 678.315 743.784L676.779 742.502C652.997 771.013 615.152 789.476 572.499 789.476V791.476ZM440.099 671.896C440.099 738.032 499.476 791.476 572.499 791.476V789.476C500.382 789.476 442.099 736.74 442.099 671.896H440.099ZM440.099 671.762L440.099 671.895L442.099 671.896L442.099 671.763L440.099 671.762ZM322.844 553.861C322.844 615.64 374.662 666.351 441.003 672.758L441.196 670.767C375.699 664.441 324.844 614.438 324.844 553.861H322.844ZM359.475 471.288C336.794 492.74 322.844 521.821 322.844 553.861H324.844C324.844 522.424 338.527 493.854 360.849 472.741L359.475 471.288Z" fill="white" fill-opacity="0.1" mask="url(#path-7-inside-4_5116_3518)"/>
</g>
<defs>
<filter id="filter0_b_5116_3518" x="-40.2" y="-40.2" width="1323.42" height="1101.07" filterUnits="userSpaceOnUse" color-interpolation-filters="sRGB">
<feFlood flood-opacity="0" result="BackgroundImageFix"/>
<feGaussianBlur in="BackgroundImageFix" stdDeviation="20.1"/>
<feComposite in2="SourceAlpha" operator="in" result="effect1_backgroundBlur_5116_3518"/>
<feBlend mode="normal" in="SourceGraphic" in2="effect1_backgroundBlur_5116_3518" result="shape"/>
</filter>
<filter id="filter1_b_5116_3518" x="78.8" y="62.8" width="1088.26" height="907.97" filterUnits="userSpaceOnUse" color-interpolation-filters="sRGB">
<feFlood flood-opacity="0" result="BackgroundImageFix"/>
<feGaussianBlur in="BackgroundImageFix" stdDeviation="20.1"/>
<feComposite in2="SourceAlpha" operator="in" result="effect1_backgroundBlur_5116_3518"/>
<feBlend mode="normal" in="SourceGraphic" in2="effect1_backgroundBlur_5116_3518" result="shape"/>
</filter>
<filter id="filter2_b_5116_3518" x="174.8" y="145.8" width="896.891" height="750.838" filterUnits="userSpaceOnUse" color-interpolation-filters="sRGB">
<feFlood flood-opacity="0" result="BackgroundImageFix"/>
<feGaussianBlur in="BackgroundImageFix" stdDeviation="20.1"/>
<feComposite in2="SourceAlpha" operator="in" result="effect1_backgroundBlur_5116_3518"/>
<feBlend mode="normal" in="SourceGraphic" in2="effect1_backgroundBlur_5116_3518" result="shape"/>
</filter>
<filter id="filter3_b_5116_3518" x="254.8" y="210.8" width="737.4" height="619.877" filterUnits="userSpaceOnUse" color-interpolation-filters="sRGB">
<feFlood flood-opacity="0" result="BackgroundImageFix"/>
<feGaussianBlur in="BackgroundImageFix" stdDeviation="20.1"/>
<feComposite in2="SourceAlpha" operator="in" result="effect1_backgroundBlur_5116_3518"/>
<feBlend mode="normal" in="SourceGraphic" in2="effect1_backgroundBlur_5116_3518" result="shape"/>
</filter>
</defs>
</svg>
