<svg width="40" height="40" viewBox="0 0 40 40" fill="none" xmlns="http://www.w3.org/2000/svg">
<path d="M40 20C40 31.0457 31.0457 40 20 40C8.9543 40 0 31.0457 0 20C0 8.9543 8.9543 0 20 0C31.0457 0 40 8.9543 40 20Z" fill="#24B984" fill-opacity="0.12"/>
<g clip-path="url(#clip0_2865_2408)">
<path fill-rule="evenodd" clip-rule="evenodd" d="M29.546 13.111C29.8272 13.3923 29.9852 13.7738 29.9852 14.1715C29.9852 14.5693 29.8272 14.9507 29.546 15.232L18.303 26.475C18.1544 26.6236 17.978 26.7415 17.7839 26.8219C17.5898 26.9024 17.3817 26.9438 17.1715 26.9438C16.9614 26.9438 16.7533 26.9024 16.5591 26.8219C16.365 26.7415 16.1886 26.6236 16.04 26.475L10.454 20.89C10.3108 20.7516 10.1965 20.5861 10.1179 20.4031C10.0393 20.2201 9.99788 20.0233 9.99615 19.8241C9.99442 19.6249 10.0324 19.4274 10.1078 19.2431C10.1832 19.0587 10.2946 18.8913 10.4354 18.7504C10.5763 18.6096 10.7438 18.4982 10.9281 18.4228C11.1124 18.3474 11.31 18.3094 11.5091 18.3111C11.7083 18.3129 11.9051 18.3542 12.0881 18.4329C12.2711 18.5115 12.4367 18.6257 12.575 18.769L17.171 23.365L27.424 13.111C27.5633 12.9716 27.7287 12.861 27.9108 12.7856C28.0928 12.7102 28.288 12.6713 28.485 12.6713C28.6821 12.6713 28.8772 12.7102 29.0593 12.7856C29.2413 12.861 29.4067 12.9716 29.546 13.111Z" fill="#24B984"/>
</g>
<defs>
<clipPath id="clip0_2865_2408">
<rect width="24" height="24" fill="white" transform="translate(8 8)"/>
</clipPath>
</defs>
</svg>
