<svg width="42" height="45" viewBox="0 0 42 45" fill="none" xmlns="http://www.w3.org/2000/svg">
<path d="M4.15869 40.7063H14.1389V40.7063C14.1389 42.7096 12.5149 44.3336 10.5116 44.3336H7.78597C5.78268 44.3336 4.15869 42.7096 4.15869 40.7063V40.7063Z" fill="#D9D9D9"/>
<path d="M27.8613 40.6001H37.8415V40.6001C37.8415 42.6034 36.2175 44.2274 34.2143 44.2274H31.4886C29.4853 44.2274 27.8613 42.6034 27.8613 40.6001V40.6001Z" fill="#D9D9D9"/>
<rect width="42" height="40.7061" rx="4" fill="#D9D9D9"/>
<circle cx="10.8895" cy="15.0911" r="2.33333" fill="black"/>
<circle cx="30.9637" cy="15.0911" r="2.33333" fill="black"/>
<path d="M17.922 22.6512C16.9479 22.3787 16.9479 20.9977 17.922 20.7252L21.1085 19.8336C21.7462 19.6552 22.378 20.1346 22.378 20.7967V22.5797C22.378 23.2418 21.7462 23.7211 21.1085 23.5427L17.922 22.6512Z" fill="#FFDF36"/>
</svg>
