<svg xmlns="http://www.w3.org/2000/svg" width="14" height="14" viewBox="0 0 14 14" fill="none">
  <path d="M10.4997 5.8335H8.16634V3.50016C8.16634 3.19074 8.04342 2.894 7.82463 2.6752C7.60584 2.45641 7.30909 2.3335 6.99967 2.3335C6.69026 2.3335 6.39351 2.45641 6.17472 2.6752C5.95592 2.894 5.83301 3.19074 5.83301 3.50016L5.87442 5.8335H3.49967C3.19026 5.8335 2.89351 5.95641 2.67472 6.1752C2.45592 6.394 2.33301 6.69074 2.33301 7.00016C2.33301 7.30958 2.45592 7.60633 2.67472 7.82512C2.89351 8.04391 3.19026 8.16683 3.49967 8.16683L5.87442 8.12541L5.83301 10.5002C5.83301 10.8096 5.95592 11.1063 6.17472 11.3251C6.39351 11.5439 6.69026 11.6668 6.99967 11.6668C7.30909 11.6668 7.60584 11.5439 7.82463 11.3251C8.04342 11.1063 8.16634 10.8096 8.16634 10.5002V8.12541L10.4997 8.16683C10.8091 8.16683 11.1058 8.04391 11.3246 7.82512C11.5434 7.60633 11.6663 7.30958 11.6663 7.00016C11.6663 6.69074 11.5434 6.394 11.3246 6.1752C11.1058 5.95641 10.8091 5.8335 10.4997 5.8335Z" fill="#666666"/>
</svg>