<svg width="564" height="193" viewBox="0 0 564 193" fill="none" xmlns="http://www.w3.org/2000/svg">
<rect x="376" y="76" width="188" height="28" fill="#007CFF"/>
<rect x="188" width="188" height="28" fill="#007CFF"/>
<rect y="48" width="188" height="28" fill="#007CFF"/>
<path fill-rule="evenodd" clip-rule="evenodd" d="M188 28H376V48V76V104H564V193H0V104V76H188V48V28Z" fill="#414352"/>
<path d="M279.976 92V60.68H272.9V54.532C275.8 54.532 280.266 52.85 280.266 49.892H288.212V92H279.976Z" fill="#E6F2FF"/>
<path d="M462.364 124.138H472.502C475.018 124.138 478.496 127.653 478.496 130.021V131.945C478.496 133.61 477.312 135.534 475.61 136.274C477.312 136.903 478.866 137.902 478.866 140.899V144.044C478.866 146.042 474.389 151 472.021 151H462.105V147.078H470.504C471.503 147.078 473.612 144.895 473.612 143.822V140.233C473.612 139.826 473.686 138.753 472.428 138.753H463.585V134.831H470.134C471.836 134.831 473.242 134.202 473.242 131.686V130.317C473.242 129.133 472.65 128.06 471.281 128.06H462.364V124.138Z" fill="#E6F2FF"/>
<path d="M96.2585 110.036C96.8565 109.622 97.0865 109.024 97.0865 108.15V104.24C97.0865 102.768 96.3505 101.48 94.6485 101.48H84.1145V96.604H96.1665C99.2945 96.604 103.618 100.928 103.618 103.872V108.472C103.618 110.588 102.468 112.014 100.996 113.118L90.3245 121.306V125.124H104.216V130H83.7925V121.03C83.7925 119.65 84.2065 118.96 85.1265 118.27L96.2585 110.036Z" fill="#E6F2FF"/>
</svg>
