<svg width="139" height="28" viewBox="0 0 139 28" fill="none" xmlns="http://www.w3.org/2000/svg">
<path d="M43.5745 0H139V28H24L43.5745 0Z" fill="#7ECE40"/>
<path d="M63.4824 19.9827V16.3347H57.2504V14.5107H71.6524V16.3347H66.1804V19.2797L63.4824 19.9827ZM61.7344 17.8737V21.3697H70.0564V23.1937H59.0364V17.8737H61.7344ZM59.0364 6.41675H69.8664V8.24075H65.8004V9.11475L70.2274 12.1927L69.1824 13.5037L64.4514 10.9387C63.1024 11.6607 61.1644 12.7057 59.7014 13.5037L58.6564 12.1927C60.0244 11.2427 62.0574 9.81775 62.5514 9.47575C63.0074 9.17175 63.1024 8.96275 63.1024 8.82975V8.24075H59.0364V6.41675ZM86.6449 6.13175V21.9587L83.9469 22.6427V6.13175H86.6449ZM81.8379 6.75875V16.3347C81.8379 16.5627 81.8189 16.6957 81.6289 16.8097L78.8929 18.6527C78.4939 18.9187 77.8669 18.9567 77.3159 18.9567H73.5729V6.75875H76.1759V10.9387H79.2349V6.75875H81.8379ZM77.4109 17.1327C77.6199 17.1327 77.8099 17.1137 78.0379 16.9807L79.2349 16.2017V12.7627H76.1759V17.1327H77.4109ZM89.0448 8.67775C89.0448 7.82275 91.0208 6.18875 92.0088 6.18875H95.0298C96.0178 6.18875 97.6898 7.49975 97.6898 8.37375V10.9387C97.6898 11.8127 95.8088 13.3897 94.7828 13.4467V14.7197H96.5118C96.8158 14.7007 97.0818 14.6437 97.3288 14.5677L99.0388 13.9407V6.13175H101.737V11.2047H104.15V13.0287H101.737V18.3297L99.0388 19.0327V15.5367L97.3098 16.3537C97.0628 16.4677 96.7778 16.5437 96.4738 16.5437H88.3418V14.7197H92.0848V13.4467H91.7048C90.7168 13.4467 89.0448 12.0977 89.0448 11.2237V8.67775ZM93.8328 17.9497V21.5597H102.174V23.3837H91.1348V17.9497H93.8328ZM95.1438 8.84875C95.1438 8.43075 94.6118 7.99375 94.2318 7.99375H92.8638C92.5028 7.99375 91.5908 8.75375 91.5908 9.15275V10.7677C91.5908 11.1667 92.1608 11.6417 92.5218 11.6417H93.8708C94.2508 11.6417 95.1438 10.8817 95.1438 10.4827V8.84875ZM106.736 16.5247V12.6487C106.736 12.3067 106.698 11.8887 107.23 11.4707L108.028 10.8437C108.218 10.6917 108.427 10.6157 108.674 10.6157H115.058V8.41175H106.926V6.58775H116.312C116.502 6.58775 116.73 6.60675 116.901 6.75875L117.547 7.38575C117.661 7.49975 117.756 7.63275 117.756 8.01275V11.5087C117.756 12.0027 117.414 12.4017 116.863 12.4397H109.434V14.7007H118.136V16.5247H116.16V19.0897H119.542V20.9137H105.14V19.0897H108.522V16.5247H106.736ZM113.462 19.0897V16.5247H111.22V19.0897H113.462Z" fill="white"/>
<path d="M30 0H41L21 28H10L30 0Z" fill="#7ECE40"/>
<path d="M20 0H27L7 28H0L20 0Z" fill="#7ECE40"/>
</svg>
