<svg width="20" height="20" viewBox="0 0 20 20" fill="none" xmlns="http://www.w3.org/2000/svg">
<path d="M4.58341 5.83341C4.25189 5.83341 3.93395 5.70172 3.69953 5.4673C3.46511 5.23288 3.33341 4.91494 3.33341 4.58341C3.33341 4.25189 3.46511 3.93395 3.69953 3.69953C3.93395 3.46511 4.25189 3.33341 4.58341 3.33341C4.91494 3.33341 5.23288 3.46511 5.4673 3.69953C5.70172 3.93395 5.83341 4.25189 5.83341 4.58341C5.83341 4.91494 5.70172 5.23288 5.4673 5.4673C5.23288 5.70172 4.91494 5.83341 4.58341 5.83341ZM17.8417 9.65008L10.3417 2.15008C10.0417 1.85008 9.62508 1.66675 9.16675 1.66675H3.33341C2.40841 1.66675 1.66675 2.40841 1.66675 3.33341V9.16675C1.66675 9.62508 1.85008 10.0417 2.15841 10.3417L9.65008 17.8417C9.95841 18.1417 10.3751 18.3334 10.8334 18.3334C11.2917 18.3334 11.7084 18.1417 12.0084 17.8417L17.8417 12.0084C18.1501 11.7084 18.3334 11.2917 18.3334 10.8334C18.3334 10.3667 18.1417 9.95008 17.8417 9.65008Z" fill="#808080"/>
</svg>
