<svg width="41" height="41" viewBox="0 0 41 41" fill="none" xmlns="http://www.w3.org/2000/svg">
<path d="M41 20.5C41 31.8218 31.8218 41 20.5 41C9.17816 41 0 31.8218 0 20.5C0 9.17816 9.17816 0 20.5 0C31.8218 0 41 9.17816 41 20.5Z" fill="#FF0000" fill-opacity="0.12"/>
<path d="M33.217 26.0816L23.3105 8.8776C23.0236 8.38688 22.6132 7.97983 22.1201 7.69697C21.627 7.4141 21.0685 7.26526 20.5 7.26526C19.9316 7.26526 19.373 7.4141 18.8799 7.69697C18.3869 7.97983 17.9765 8.38688 17.6895 8.8776L7.78307 26.0816C7.50465 26.5578 7.35791 27.0995 7.35791 27.6511C7.35791 28.2028 7.50465 28.7444 7.78307 29.2206C8.06683 29.7138 8.47668 30.1226 8.97058 30.4051C9.46447 30.6876 10.0246 30.8336 10.5936 30.8281H30.4065C30.975 30.8332 31.5347 30.687 32.0282 30.4045C32.5216 30.1221 32.9311 29.7135 33.2147 29.2206C33.4935 28.7446 33.6406 28.2031 33.641 27.6514C33.6414 27.0998 33.4951 26.558 33.217 26.0816ZM30.8607 27.8601C30.8147 27.9386 30.7482 28.0032 30.6685 28.0471C30.5887 28.091 30.4986 28.1125 30.4076 28.1094H10.5936C10.5026 28.1125 10.4125 28.091 10.3327 28.0471C10.253 28.0032 10.1865 27.9386 10.1405 27.8601C10.1014 27.7966 10.0807 27.7235 10.0807 27.6489C10.0807 27.5743 10.1014 27.5011 10.1405 27.4376L20.0469 10.2336C20.096 10.1581 20.1631 10.096 20.2422 10.0531C20.3214 10.0101 20.41 9.9876 20.5 9.9876C20.5901 9.9876 20.6787 10.0101 20.7578 10.0531C20.8369 10.096 20.9041 10.1581 20.9531 10.2336L30.8585 27.4376C30.8979 27.5009 30.919 27.574 30.9194 27.6485C30.9198 27.7231 30.8995 27.7964 30.8607 27.8601ZM19.1406 20.4062V16.7812C19.1406 16.4207 19.2839 16.0749 19.5388 15.82C19.7937 15.5651 20.1395 15.4219 20.5 15.4219C20.8606 15.4219 21.2063 15.5651 21.4612 15.82C21.7162 16.0749 21.8594 16.4207 21.8594 16.7812V20.4062C21.8594 20.7668 21.7162 21.1125 21.4612 21.3675C21.2063 21.6224 20.8606 21.7656 20.5 21.7656C20.1395 21.7656 19.7937 21.6224 19.5388 21.3675C19.2839 21.1125 19.1406 20.7668 19.1406 20.4062ZM22.3125 24.9375C22.3125 25.296 22.2062 25.6464 22.0071 25.9445C21.8079 26.2425 21.5248 26.4748 21.1936 26.612C20.8624 26.7492 20.498 26.7851 20.1464 26.7152C19.7948 26.6452 19.4719 26.4726 19.2184 26.2191C18.9649 25.9656 18.7923 25.6427 18.7223 25.2911C18.6524 24.9395 18.6883 24.5751 18.8255 24.2439C18.9627 23.9127 19.195 23.6296 19.4931 23.4304C19.7911 23.2313 20.1415 23.125 20.5 23.125C20.9807 23.125 21.4417 23.3159 21.7817 23.6558C22.1216 23.9958 22.3125 24.4568 22.3125 24.9375Z" fill="#E33434"/>
</svg>
