<svg width="42" height="57" viewBox="0 0 42 57" fill="none" xmlns="http://www.w3.org/2000/svg">
<path d="M4.15869 52.7063H14.1389V52.7063C14.1389 54.7096 12.5149 56.3336 10.5116 56.3336H7.78597C5.78268 56.3336 4.15869 54.7096 4.15869 52.7063V52.7063Z" fill="#D9D9D9"/>
<path d="M27.8613 52.6001H37.8415V52.6001C37.8415 54.6034 36.2175 56.2274 34.2143 56.2274H31.4886C29.4853 56.2274 27.8613 54.6034 27.8613 52.6001V52.6001Z" fill="#D9D9D9"/>
<rect y="12" width="42" height="40.7061" rx="4" fill="#D9D9D9"/>
<circle cx="10.8895" cy="27.0911" r="2.33333" fill="black"/>
<circle cx="30.9637" cy="27.0911" r="2.33333" fill="black"/>
<path d="M17.922 34.6512C16.9479 34.3787 16.9479 32.9977 17.922 32.7252L21.1085 31.8336C21.7462 31.6552 22.378 32.1346 22.378 32.7967V34.5797C22.378 35.2418 21.7462 35.7211 21.1085 35.5427L17.922 34.6512Z" fill="#FFDF36"/>
<g clip-path="url(#clip0_4351_2716)">
<path fill-rule="evenodd" clip-rule="evenodd" d="M21.4686 1.95774C21.4159 1.8823 21.3458 1.82068 21.2642 1.77814C21.1827 1.7356 21.092 1.71338 21 1.71338C20.908 1.71338 20.8173 1.7356 20.7358 1.77814C20.6542 1.82068 20.5841 1.8823 20.5314 1.95774L16.9223 7.11431L13.976 4.16689C13.8961 4.08676 13.7942 4.03218 13.6832 4.01004C13.5722 3.98791 13.4572 3.99923 13.3526 4.04256C13.2481 4.08589 13.1588 4.15929 13.096 4.25345C13.0332 4.34761 12.9998 4.45829 13 4.57146V12C13 12.6062 13.2408 13.1876 13.6695 13.6163C14.0981 14.0449 14.6795 14.2857 15.2857 14.2857H26.7143C27.3205 14.2857 27.9019 14.0449 28.3305 13.6163C28.7592 13.1876 29 12.6062 29 12V4.57146C29.0002 4.45829 28.9668 4.34761 28.904 4.25345C28.8412 4.15929 28.7519 4.08589 28.6474 4.04256C28.5428 3.99923 28.4278 3.98791 28.3168 4.01004C28.2058 4.03218 28.1039 4.08676 28.024 4.16689L25.0777 7.11431L21.4686 1.95774Z" fill="#FFE34E"/>
</g>
<defs>
<clipPath id="clip0_4351_2716">
<rect width="16" height="16" fill="white" transform="translate(13)"/>
</clipPath>
</defs>
</svg>
