<svg width="23" height="23" viewBox="0 0 23 23" fill="none" xmlns="http://www.w3.org/2000/svg">
<path d="M18.7314 17.206C18.9339 17.4085 19.0477 17.6832 19.0477 17.9697C19.0477 18.2561 18.9339 18.5308 18.7314 18.7333C18.5288 18.9359 18.2541 19.0497 17.9677 19.0497C17.6813 19.0497 17.4066 18.9359 17.204 18.7333L11.4998 13.0273L5.79386 18.7315C5.59132 18.9341 5.31662 19.0479 5.03019 19.0479C4.74376 19.0479 4.46906 18.9341 4.26652 18.7315C4.06398 18.529 3.9502 18.2543 3.9502 17.9679C3.9502 17.6814 4.06398 17.4067 4.26652 17.2042L9.97249 11.5L4.26832 5.79403C4.06578 5.59149 3.95199 5.31679 3.95199 5.03036C3.95199 4.74392 4.06578 4.46922 4.26832 4.26668C4.47085 4.06415 4.74555 3.95036 5.03199 3.95036C5.31842 3.95036 5.59312 4.06415 5.79566 4.26668L11.4998 9.97266L17.2058 4.26579C17.4084 4.06325 17.6831 3.94946 17.9695 3.94946C18.2559 3.94946 18.5306 4.06325 18.7332 4.26579C18.9357 4.46832 19.0495 4.74303 19.0495 5.02946C19.0495 5.31589 18.9357 5.59059 18.7332 5.79313L13.0272 11.5L18.7314 17.206Z" fill="black"/>
</svg>
